<?xml version="1.0" standalone="no"?>
<!DOCTYPE svg PUBLIC "-//W3C//DTD SVG 1.1//EN"
"http://www.w3.org/Graphics/SVG/1.1/DTD/svg11.dtd">
<svg height="600" version="1.1" width="800" xmlns="http://www.w3.org/2000/svg"><g><rect fill="#f9f9f9" height="600" width="800" x="0" y="0" /><g transform="translate(40 40)"><g transform="translate(24 0)"><text fill="#333" font-family="Monaco" font-size="16" x="0" y="0">Temperature</text></g><g transform="translate(0 20)"><g transform="translate(24 0)"><g class="axis bottom"><g class="tick"><line stroke="#eee" stroke-width="1" x1="116" x2="116" y1="0" y2="482.0" /><text dy="1em" fill="#9c9c9c" font-family="Monaco" text-anchor="middle" x="116" y="486.0">5/04/2019</text></g><g class="tick"><line stroke="#eee" stroke-width="1" x1="348" x2="348" y1="0" y2="482.0" /><text dy="1em" fill="#9c9c9c" font-family="Monaco" text-anchor="middle" x="348" y="486.0">6/04/2019</text></g><g class="tick"><line stroke="#eee" stroke-width="1" x1="580" x2="580" y1="0" y2="482.0" /><text dy="1em" fill="#9c9c9c" font-family="Monaco" text-anchor="middle" x="580" y="486.0">7/04/2019</text></g></g><g class="axis left"><g class="tick"><line stroke="#eee" stroke-width="1" x1="-4" x2="696.0" y1="358.50" y2="358.50" /><text dy="0.32em" fill="#9c9c9c" font-family="Monaco" text-anchor="end" x="-8" y="358.50">10</text></g><g class="tick"><line stroke="#eee" stroke-width="1" x1="-4" x2="696.0" y1="239.0" y2="239.0" /><text dy="0.32em" fill="#9c9c9c" font-family="Monaco" text-anchor="end" x="-8" y="239.0">20</text></g><g class="tick"><line stroke="#eee" stroke-width="1" x1="-4" x2="696.0" y1="119.50" y2="119.50" /><text dy="0.32em" fill="#9c9c9c" font-family="Monaco" text-anchor="end" x="-8" y="119.50">30</text></g><g class="tick"><line stroke="#eee" stroke-width="1" x1="-4" x2="696.0" y1="0" y2="0" /><text dy="0.32em" fill="#9c9c9c" font-family="Monaco" text-anchor="end" x="-8" y="0">40</text></g><g class="tick"><line stroke="#a8a8a8" stroke-width="1" x1="-4" x2="696.0" y1="478" y2="478" /><text dy="0.32em" fill="#9c9c9c" font-family="Monaco" text-anchor="end" x="-8" y="478">0</text></g></g><g><g class="series columns"><rect fill="#e41a1c" height="334.6" width="208.8" x="11.6" y="143.4" /><rect fill="#e41a1c" height="370.450" width="208.8" x="243.6" y="107.550" /><rect fill="#e41a1c" height="346.550" width="208.8" x="475.6" y="131.450" /></g></g></g></g></g></g></svg>